<?xml version="1.0" encoding="utf-8"?>
<!-- Generator: Adobe Illustrator 17.1.0, SVG Export Plug-In . SVG Version: 6.00 Build 0)  -->
<!DOCTYPE svg PUBLIC "-//W3C//DTD SVG 1.1//EN" "http://www.w3.org/Graphics/SVG/1.1/DTD/svg11.dtd">
<svg version="1.1" id="Layer_1" xmlns="http://www.w3.org/2000/svg" xmlns:xlink="http://www.w3.org/1999/xlink" x="0px" y="0px"
	 viewBox="0 0 475 200" enable-background="new 0 0 475 200" xml:space="preserve">
<g display="none">
	<g display="inline">
		<text transform="matrix(1 0 0 1 48.9578 160.9421)" fill="#FFFFFF" font-family="'BerlingLTStd-Roman'" font-size="53.2967">AN</text>
		
			<text transform="matrix(1 0 0 1 146.9578 160.9421)" fill="#FFFFFF" font-family="'BerlingLTStd-Roman'" font-size="53.2967" letter-spacing="-2">MIGUELIT</text>
		<text transform="matrix(1.0378 0 0 1 17.2928 171.3454)" fill="#FFFFFF" font-family="'BerlingLTStd-Roman'" font-size="67.0335">S</text>
		
			<text transform="matrix(1.0192 0 0 1 396.2923 171.0602)" fill="#FFFFFF" font-family="'BerlingLTStd-Roman'" font-size="68.2566">O</text>
		
			<text transform="matrix(0.8557 0 0 1 54.9583 179.6188)" fill="#FFFFFF" font-family="'BerlingLTStd-Bold'" font-size="16.8855" letter-spacing="8.2">MUTUAL WATER COMPANY</text>
	</g>
	<g display="inline">
		<line fill="#FFFFFF" stroke="#FFFFFF" stroke-width="1.5" stroke-miterlimit="10" x1="21" y1="117.7" x2="203" y2="117.7"/>
		<line fill="#FFFFFF" stroke="#FFFFFF" stroke-width="1.5" stroke-miterlimit="10" x1="256" y1="117.7" x2="452.5" y2="117.7"/>
	</g>
	<g display="inline">
		<path fill="#FFFFFF" d="M202.3,24.8 M233.3,29.9c0,2.6-0.4,3.5-0.7,7.9c-0.2,2.5-0.6,4.7,0.1,7.4c0.3-0.3,0.6-0.5,1.1-0.9
			c0.5,0.7,1,1.4,1.8,2.5c2.2-8.7,4.3-16.8,6.3-24.9c-0.5-0.4,7.7,4.6,9.5,6.1c-0.8,0-6.7-3.3-7.7-3.3c-0.7,1.3-0.4,1.1-1.4,4.1
			c-0.3,1-0.4,1.3-0.6,2.8l-0.6,2.8c-0.4,4.3-1.9,8.9-2.4,14.4c1.2-0.9,1.8-1.1,2.1-1.5c2.9-4.8,5.8-8.8,8.2-13.9l3,1.7L247,42
			c-1.9,2.5-3.6,4.8-5.6,7.5c1.1,1.3,2.2,2.8,3.3,4.2c3-2.8,6-5.6,9-8.3c0.1,0.3,1.2-1.5,1.3-1.2l0.6,0.3c1.5,0.4,2,1.4,1.9,2.8
			c-1.1,0.2-2.6-0.6-3.3,1.3l-2.5,2.2c-2.2,2.1-4.4,4.4-7.2,7.2c1.1,0.4,1.9,0.7,2.6,0.9c2.4,0.9,4.8-0.6,7.4-1.5
			c0.7-0.2,1.4-0.4,2.1-0.7c0,0.5,0,0.9,0,1.6c1.5,0.5,3.7,0.2,3.8,3.1c0.7,0,1.4-0.1,2.1,0c0.7,0.1,1.3,0.5,2,0.7
			c2.1-1.5,4.6-0.4,12-1.4c3.3-0.5,1.4-0.9,0.2-0.1c-1.7,1.2-3.5,0.1-4.8,0.9c-1.6,1-3,0.6-4.5,0.8c-1.6,0.2-3.2,0.6-4.7,0.9
			c-0.2,0-0.3,0.4-0.5,0.5c0.3,0.3,0.5,0.6,0.8,1c-2.5-1.2-4.9-0.5-7.1-0.5c-0.5,1.2-0.8,1.9-1.1,2.6c0.6,0,1.1,0.2,1.5,0.1
			c1.1-0.3,2.3-0.4,3.3-1c1.4-0.7,2.3,1.5,3.6,0.3c1.4-1.4,1.9,1.3,3.3,0.7c1.3-0.6,3,0.6,4.4-0.7c0.5-0.5,2-0.6,2.6-0.2
			c2.6,1.7,5.3,0.4,8.1,1c0-2.6,0-4.9-5.1-6.4c-5,0.4-4.9-0.1-4.7-0.1c2.7-0.3,5.2-0.6,7.3-2.6c1.1-1,3.1,0.4,4.1-1.3
			c3.6-0.6,7.3-1,10.9-1.9c3.8-1.1,7.9-0.9,11.5-2.7c2.3,0.6,4.3-1,6.6-1c1.1,0,2.2-0.5,3.6-0.8c0.3,0.2,0.7,0.6,1.5,1.3
			c0,1.4-0.1,3.1,0,4.8c0.1,1.6-0.6,3.3,0.9,4.8c0.4,0.4,0.4,1.9,0,2.2c-1.5,1.2-0.1,2.7-0.6,4.1c-0.6,1.5-0.1,3.4-0.3,5
			c-0.3,3.6-0.7,7.2-1.1,10.7c-0.7,0.9-1.5,1.8-2.1,2.6c-4.9-1.4-9.5-2-14.1-2.9c-4.6-1-9.3-1.7-13.7-2.9c-4.5-1.2-9.3-1.3-13.4-3.5
			c-4.9,0.7-9.2-2.7-14-1.8c-0.4,0.8-0.8,1.6-1.2,2.5c1.2,0.4,2.4,0.8,3.7,1.1c0.1,0.3,0.2,0.5,0.3,0.8c0.2-0.3,0.4-0.5,0.6-0.8
			c0.9,1.1,1.8,2.3,3.3,4.1c-2.7-0.9-4.5-1.6-6.6-2.3c-0.5,1.3-1,2.6-1.6,4.1c1.1,0.8,2,1.4,3.1,2.2l1,10.1
			c-1.6-1.4-4.1-2.9-5.5-4.4c-2,1.7-2.1,3.7-2,5.8c-0.9-0.4-1.8-0.9-2.3-1.1c-0.6-1.2-0.8-2.3-1.4-3c-0.7-0.8-1.1-1.4-1-2.6
			c1,0.6,1.7,1.5,2.4,2c0.7-0.7,1-1,1.5-1.5c-1.2-0.7-2.4-1.4-3.7-2.2c-0.1,0.6-0.2,1-0.2,1.7c-0.9-0.4-1.8-1-2.8-1.6
			c0,0,0.1-0.1,0.1-0.1c-0.2-0.3-0.4-0.5-0.7-0.8c-0.1,0.1-0.2,0.2-0.3,0.3c0.3,0.2,0.5,0.4,0.8,0.6c0.1,0.5,0.2,1.1,0.4,1.7
			c0.2,0.7,0.4,1.4,0.6,2c-0.4-0.2-0.7-0.4-1.1-0.6c-0.1-0.1-0.2-0.3-0.3-0.2c-0.1,0-0.2,0.2-0.4,0.4c0,2.5,0,5.1,0,7.6
			c0.5,0.5,0.9,0.9,1.3,1.3c0.5-0.3,1-0.6,1.5-0.9c0.1,0.3,0.2,0.5,0.3,0.8c0.2-0.3,0.4-0.5,0.6-0.8c0.3-0.1,0.5-0.2,0.8-0.3
			c-0.3-0.2-0.5-0.4-0.8-0.6c-0.1-1.2,0.2-2.3-0.9-3.3c-0.7-0.7-0.7-2.1-1-3.2c0.6,0.4,1.4,0.7,1.7,1.3c0.9,1.7,1.7,3.5,2.4,5.2
			c0.9,0,1.6,0,2.6,0c0,0-0.3,0.1-0.5,0.1c0.5,1.5,1,3,1.5,4.5c0.2,0,0.4-0.1,0.5-0.1c0-1,0-2.1,0-3.2c-0.4-0.4-0.8-0.9-1.5-1.3
			c-0.2-0.6-0.2-1.2-0.2-1.9c0.9,0.7,1.9,1.5,2.5,2c0.3,3.2,0.6,6.1,0.9,9.7c-2-2.6-3.7-4.8-5.3-6.9c-0.1-0.6-0.2-1.3-0.1-1
			c-0.4,0.1-1.2,0.2-1.9,0.4c0.1,0.2,0.2,0.3,0.3,0.5c0.6,0,1.1,0.1,1.7,0.1c-0.7,2-2.5,0.2-3.8,1.5c0.2,0.7,0.4,1.6,0.7,2.5
			c0.6,1.3,1.4,2.5,1.9,3.9c0.3,0.8,1,2.1-0.7,2.5c-0.3-2.9-2.5-4.9-3.1-7.5c-0.5,0-0.8,0-1.1,0c-0.1,0.2-0.3,0.5-0.3,0.7
			c1.2,3.1,2.8,6.1,2.6,9.6c-1.4-1-1.3-2.7-1.8-4.1c-0.5-1.3-0.9-2.8-1.7-4.2c-0.1,1.4-0.2,2.7-0.3,4.6c-0.4,0.3-0.2,0.9-1.2,1.6
			l-0.5,5.4l-1.7,8.1c-0.8,5.2-1.7,10.5-2.5,15.7c-1-5.6,0.8-16.1,1.7-21.7c-1,0-1.7-0.1-2.5-0.2c-0.7,1.5-1.4,5.4-2,9.2
			c-1.4,7.5,0,0-1.4,7.5c-0.2,1.7,0,0-1,5.2c-0.3-0.2,0.1-8.6,0.1-8.7l-0.1-7l0.3-2.4c0.8-3.9,2-7.6,1.5-11.7
			c-0.7,0.3-1.4,0.6-2.6,1c0,3.6,0,7.6,0,11.7c-1.7,0-3,0-4.5,0c-0.2-0.2-0.6-0.6-1.1-1.1c1.1-1.6,0.6-3.5,0.8-5.4
			c0.2-1.7,0.6-3.4,1-5.4c-1.8-0.5-3.4-1-5.1-1.4c-2.1,4.1-1.4,8.9-3.8,12.9c-1.7-1-3-1.7-4.1-2.3c1.3-4.3,2.5-8.4,3.7-12.7
			c-1.5-0.9-2.7-1.6-4.2-2.5c-3.2,3.4-3.8,8.2-6.9,11.7c-2.3-0.8-2.9-2.7-3.2-4.8c0.5,0.3,1.1,0.5,1.9,0.9c0-1.1,0-2,0-2.8
			c1.4-0.1,0.8-1.2,0.9-1.9c0.3-0.3,0.6-0.6,0.9-0.9c1.4-0.1,0.8-1.2,0.9-1.9c0.3-0.3,0.6-0.6,0.9-0.9c1.4-0.1,0.8-1.2,0.9-1.9
			c0.3-0.3,0.6-0.6,0.9-0.9c3.3-1.9,4.7-5,5.6-8.4c1.4-0.1,0.8-1.2,0.9-1.9c1.4-0.1,0.8-1.2,0.9-1.9c0,0,0.1,0.1,0.1,0.1
			c0.3-0.2,0.5-0.4,0.8-0.7c-0.1-0.1-0.2-0.2-0.3-0.3c-0.2,0.3-0.4,0.5-0.6,0.8c-1.4,0.1-0.7,1.2-0.9,1.9c-1.4,0.1-0.8,1.2-0.9,1.9
			c-2.1,0.8-2.6,3-3.6,4.7c-0.7,1.2-2.7,1.8-2,3.7c-0.3,0.3-0.6,0.6-0.9,0.9c-1.4,0.1-0.8,1.2-0.9,1.9c-0.3,0.3-0.6,0.6-0.9,0.9
			c-1.4,0.1-0.8,1.2-0.9,1.9c-0.3,0.3-0.6,0.6-0.9,0.9c-1.4,0.1-0.8,1.2-0.9,1.9c-0.6,0.6-1.2,1.2-1.9,1.9c-0.2,0-0.4,0.1-0.4,0
			c-0.2-0.2-0.3-0.5-0.6-0.9c1.7-2.4,3.4-4.9,5.1-7.4c0.4-0.6,0.4-1.3,0.7-2c0.3-0.2,0.7-0.4,1.4-0.8c-1.3-1.4-2.4-2.6-3.5-3.8
			c-1.1,1.1-2.1,2.2-3.2,3.3c0,0,0.3,0.4,0.8,0.9c-0.9,0.1-1.5,0.2-2.8,0.4c-1.2,1.5-2.7,3.3-4.2,5.2c-2.6-2.4-2.6-2.4-2.5-9.6
			c1.2-0.8,1.7-2.7,3.7-2.3c-0.9,1.1-1.8,2.3-2.8,3.5c0,0.9,0,1.8,0,2.7c0.2-0.2,0.4-0.3,0.5-0.5c0.2,0.7,0.5,1.4,0.7,2
			c0.3-2.6,1.6-3.9,3.4-4.8c0.1,0.3,0.2,0.5,0.3,0.8c0.2-0.3,0.4-0.5,0.6-0.8c2.1,0.3,2.8-1.7,3.6-2.8c1.3-1.7,3.2-5.3,4.9-6.2
			c2.7-1.3,4.3-3.8,6.4-5.6c-0.1-0.9-0.1-1.6-0.1-2.1c-1.1,0.3-1.9,0.5-2.7,0.7c0.6-0.8,1.2-1.7,1.9-2.6c0-0.6-0.1-1.3-0.1-1.8
			c-4.1,2.5-8,5-12.1,7.4c0.1,1.2,0.1,2.4,0.2,3.5c1.1,0,1.9,0,2.6,0c-1.3,1.5-2.6,3-3.9,4.3c-0.3,0.3-1.1,0.2-1.7,0.3
			c0.8-1.1,1.7-2.1,2.6-3.2c-0.6-1.2-1.3-2.6-1.9-3.9c-3.9,2.2-7.9,4.4-12,6.6c-3-4.1-1.7-8.2-0.7-12.1c0.2-0.9,1.4-1.7,2.6-1.3
			c-0.6,0.8-1.2,1.7-1.7,2.3c0,1.6,0,2.9,0,4.7c1.8-1.2,3.3-2.1,4.7-3c0.1-0.1,0.4,0.1,0.6,0.2c0.2,0.9,0.3,1.7,0.5,2.5
			c2.7-1,4.9-2.1,5.8-4.8c0.3,0.3,0.7,0.6,1,0.9c10.2-4,10.2-4,12.5-8.7c-1.1,0.5-1.8,1-2.6,1.2c-1,0.3-2,0.4-3,0.5
			c-3.8,0.5-7.3,2.4-11.2,2.3c1.3-2.7,1.3-2.7-1-4.9c-2.8,2.3-6.6,0.2-9.7,2c-1,0.5-2.5,0.3-3.3-2.1c0-1.1,0-3.1,0-5.1
			c0-1.7,0.4-3.1,1.9-4c0,1.2,0.4,2.5-0.9,3.3c0.4,0.4,0.9,0.9,1.4,1.4c4.2-0.5,8.7,0.9,12.4-0.7c2.8,0.6,5.2,1.8,7.3,1.4
			c2.7-0.5,5.9-0.4,7.9-3.2c-2.1-0.7-4.1-1.3-6.3-2c-0.1,0.1-0.4,0.4-0.6,0.6c-6.1-1.1-12.1-2.2-18-3.3c-0.7,0.5-1.5,1-2.2,1.5
			c-0.4-1.5,0.7-2.1,1.5-2.9c1.8,0.4,3.4,0.8,5,1c1.5,0.2,3.2-0.2,4.6,0.8c0.1-0.4,0.1-0.7,0.3-1.3c-4.6-1.7-9.2-3.4-14.1-5.2
			c-0.1-3.2,5.9-11.3,8-13.6c-0.3,1.7-4.6,8.5-4,9.9c4,0.6,7,3.3,10.7,5.1c0.2-1.2,0.3-2.1,0.4-3.1c0.7,0.1,1.2,0.2,1.6,0.3
			c-0.4,0.8-0.7,1.4-1.2,2.5c1.6,0,2.8,1,4.1,1c1.2,1.3,2.3,1.6,3.2,2.7c2.7,0.3,5.2,2.4,7.2,0.5c0.8,0.4,1.3,0.6,1.7,0.8
			c-0.4,0.6-0.7,0.9-0.8,1c1.3,0.9,2.5,1.7,3.9,2.7c0.5-0.7,1-1.2,1.2-1.5c-0.6-3.2-1.3-6.1-1.9-9.1c-0.4,0-0.8,0-1.1,0
			c-0.6,1.6-1.1,3.1-1.8,5c-0.6-0.9-1-1.5-1.5-2.2c0,0,0.1,0.1,0.1,0.1c0.3-0.2,0.5-0.4,0.8-0.7c-0.1-0.1-0.2-0.2-0.3-0.3
			c-0.2,0.3-0.4,0.5-0.6,0.8c-0.9,0.2-1.6-0.2-2.4-0.9c-1.9-1.7-3.9-3.2-5.9-4.7c-1.4-1-3-1.8-4.3-2.9c-3.1-2.5-6.3-4.6-9.8-6.5
			c0.2-0.4,0.4-0.8,0.7-1.5c-0.6-2-3.4-2-4.6-4.1c1.7-1.2,6.7-7.8,9-8.7c0,0.8-5,5.6-5,6.4c3.6,3.2,6.1,7.6,10.8,10.1
			c0.2-0.8,0.2-1.5,0.6-1.8c0.4-0.4,0.7-1.4,1.6-1.1c-0.3,1.7-0.7,3.4-0.9,4.6c3.4,3,6.3,5.7,9.1,8.2c1,0,1.9,0,2.7,0
			c1.4-1.3,2.5-2.6,2-4.8c-0.5,0.5-0.9,0.8-1.4,1.3c-0.1-0.7-0.1-1.3-0.1-1.4c2.1-1,3.9-1.9,5.7-2.7c-0.5-0.7-1-1-1.1-1.4
			c-1.3-3.5-2.4-7.1-3.8-10.5c-0.5-1.3-1-2.4-0.9-3.8c2.3,2.7,3.6,5.8,4,8.5c1.3,1.5,2.1,2.6,2.9,3.5c0.8,0,1.6,0,2.1,0
			c-0.2-2.5-0.4-4.8-0.6-7.1L223,24c-0.2-1.7-0.9-3.5-0.8-5.2c0.1-1.9-0.6-3.5-1.3-5c-2.9,1.6-7.1,0.1-9.4,3.9
			c1.7,3.1,6,15.4,6.1,19c-0.3-0.2-3.8-9.4-3.9-9.7c-1.1-2.9-2.1-5.8-3.2-8.9c-2.5,1.3-4.8,2.4-7.1,3.6l-1.5,2.4
			c-0.1,0.1-2.9,0.7-3,0.8l6.7,9.2l1.6,2c0.1,0.3,0.2,0.5,0.3,0.8l3.7,6c0.3,0.9,5,7.3,5.4,8.8c-2.8-3.2-9.5-11.4-11.8-13.8
			c-2.2-2.3-3-5.8-5.8-7.5c-0.9,0-1.5,0-2.1,0c3.5-1.9,2.3-0.1,2.9-1.7c-0.7-1.2-1.5-2.5-2.5-4.2c1.8-1.3,3.4-2.1,4.5-3.3
			c1.8-1.9,4.7-1.8,6.4-4c1.5-1.9,4.1-2.4,6.4-3.1l4.7-1.5c1.2,0,2.5,0,3.7,0c0.2,0.3,0.5,0.6,0.7,0.9c0.4-0.3,0.8-0.6,1.2-0.9
			c0.9,0,6.9,0,7.8,0c0,0.3,0,3.6,0,3.9c-0.2,0.1-0.5-2.9-0.9-2.8c-1.9,0.3-5.8,0.6-6.6,1c-2.2,3.3,0.3,6.9-0.4,10.8L225,27l0.7,6.9
			l1.4,10.6c0.7-0.3,1.3-0.6,2-0.9c0.4,0.3,1.1,0.6,1.7,0.9c0.3-0.4,0.6-0.7,0.6-0.9c-0.4-9.4,1.4-18.6,1.1-28.4
			c1.6,0.5,3.1,1.1,4.5,1.4c1.6,0.3,3.9,1,5.8,2.5c-0.1,0-1.2,7-1.3,7c-0.1,0-0.3,0-0.5-0.1c0,0,0.9-7,0.9-7
			c-2.4-0.4-6.5-2.1-7.8-1.9 M233.3,26.3 M217.4,92.1c0.3-0.1,0.5-0.2,0.8-0.3c-0.3-0.2-0.5-0.4-0.8-0.6c0-0.6,0-1.2,0-1.9
			c0.3-0.3,0.6-0.6,0.9-0.9c0.3,0,0.6,0,1-0.1c-0.1,0.1-0.1,0.1-0.2,0.2c0.2,0.3,0.4,0.5,0.7,0.8c0.1-0.1,0.2-0.2,0.3-0.3
			c-0.3-0.2-0.5-0.4-0.8-0.6c-0.1-0.6-0.2-1.2-0.3-1.8c-0.2,0-0.4,0-0.6,0.1c0,0.6,0,1.1,0,1.7c-0.3,0.3-0.6,0.6-0.9,0.9
			c-1.5,0.8-2.9,1.7-2.8,3.7c-0.5,0-0.9,0-1.5,0c-0.4,1.1-0.9,2.2-1.4,3.4c1.5-0.8,3.2-1.3,2.9-3.4c0.6-0.3,1.2-0.6,1.9-0.9
			c0.1,0.3,0.2,0.5,0.3,0.8C216.9,92.6,217.1,92.4,217.4,92.1z M239.2,76c-2.8-2.5-2.8-2.5-3-2.3c0,0.8,0,1.6,0,2.5
			c1-0.1,1.8-0.1,2.7-1c0.3-0.3,0.6-0.6-0.3-3.9c0.7,2.6,2.2,3.6,4,4.4c-0.8-1.6-0.7-4-2.7-1.5C239.5,74.7,239.2,75,239.2,76z
			 M228.6,76.2c0-0.5,0-0.9,0-1.4c-1.2-0.7-2.3-1.5-3.9-2.5c0.4,2.3,2,3.3,2.9,4.8c0.3,0.3,0.6,0.6,0.9,0.9c0,1.8,1,3.2,2.2,4.6
			c0.4,0.5,0.4,1.3,0.6,2c-0.3,0.3-0.6,0.6-0.9,0.9c-0.3-0.2-0.7-0.4-0.9-0.7c-0.3-0.4-0.6-0.8-1-1.1c0.1-0.1,0.1-0.1,0.2-0.2
			c-0.2-0.3-0.4-0.5-0.7-0.8c-0.1,0.1-0.2,0.2-0.3,0.3c0.3,0.2,0.5,0.4,0.8,0.6c0,2.8,1.2,6.9,2.6,9.4c0.7-0.1,1.4-0.1,2.6-0.2
			c-0.6-1.3-0.9-2.3-1.5-3c-0.7-0.7-1-1.4-0.9-2.4c0.3-0.3,0.6-0.6,0.9-0.9c0.6,0.3,1.1,0.5,1.8,0.8c0-2.8,0-5.4,0-7.8
			c-0.8-0.9-1.6-1.7-2.3-2.4c-0.8,0-1.6,0-2.4,0C229.2,76.8,228.9,76.5,228.6,76.2z M222.1,84.5c-0.1,0.1-0.1,0.1-0.2,0.2
			c0.2,0.3,0.4,0.5,0.7,0.8c0.1-0.1,0.2-0.2,0.3-0.3C222.6,85,222.4,84.8,222.1,84.5c0.2-2.5-0.3-5-1.5-7.4c-0.4,0-0.9,0-3.7,1.9
			c1.5-0.9,1.5-0.9,4.3-8.1c-1.8-0.7-3.6-1.3-5.5-2.1c0,1.8-0.6,4,0.1,5c1.3,1.7-0.1,3.7,3.5,3.3c0.2,0.8,0.4,1.6,0.7,2.6
			c-1.4,1.1-0.4,2.9,0,3.9c0.2,0.7,0.4,1.4,0.6,1.7C221.3,85,221.6,84.8,222.1,84.5z M230.2,62.2c0.7,0,1.2,0,1.6,0
			c0.6,1,1.2,1.9,1.8,3c2.2-3.1,1.5-6.3,1.3-9.8c-1.7,2.5-3.2,4.6-4.7,6.6c-0.5,0.5-1,1-1.5,1.5c-0.5,0.5-1.2,1-1.6,1.6
			c-0.4,0.5-1.3,0.7-1.1,1.5c1.9,0,3.7,0,5.7,0C231.2,65,230.7,63.6,230.2,62.2z M223.8,102.4c-2.5,6.3-4.4,12.9-6.4,19.4
			c-0.1,0.3,0.2,0.8,0.3,1.2c0.4,0,0.7,0,1.1,0c2.6-6.6,4.1-13.6,5.3-20.7c0.9-1.1,0.9-1.1,0-2.6C224,100.7,224,101.6,223.8,102.4z
			 M255,85.1c-1.9-4-5.6-3.5-7.6-6.7c0,1.5,0,2.3,0,3.1c1.9,1.9,3.7,4.1,5.9,5.8c2.2,1.6,3.4,4.2,5.9,5.8c0-2.3,0-4.4,0-6.2
			c-0.9-0.4-1.5-0.8-2.2-1.1c-0.2,0.5-0.5,1.1-0.8,1.7c-0.4,0-0.7,0-1.2,0c0-1,0-2.1-7.9-10.7c1,1.6,2.6,2.5,4.1,3.3
			c1.5,0.8,2.2,2.9,4.4,2.5c0-1.3,0-2.7,0-4C252.9,77.5,250.6,75.1,255,85.1z M315.7,59c0.3-0.6,0.6-1.2,1-1.9c-0.9-0.4-1.5-0.7-2-1
			c-0.1-0.9-0.1-1.6-0.2-2.4c-0.8,0.4-1.2,0.8-1.8,1c-3.3,1.3-7,1-10.4,1.8c-2.6,0.5-4.9,1.4-7.5,2.4c1.5,0.9,2.4,0.5,3.6-0.3
			c0.7-0.5,2,0,3.1,0.1c-1.8,0.8-2.2,1.1-3.3,2.4c0.8,0.2,1.7,0.3,2.7,0.5c-1.7,1.8-3.6-0.7-5.3,0.5c-2.8-1.8-6.1-2.4-8.8-2.7
			c-1.3,1-2.1,1.7-2.9,2.3c0.3,5-0.8,9.9,1.4,14.6c3.7-0.1,7.6,0.9,10.4-1.8c1.5,0.4,2.6,0.7,3.6,1c0.3-0.8,0.6-1.4,0.8-2.1
			c0.5,0.1,1,0.2,1.5,0.3c-0.5,0.7-0.8,1.1-1.1,1.5c0.4,0.7,0.7,1.1,0.9,1.6c-0.6,0.3-1.1,0.5-1.8,0.7c4.5,1.4,8.7,2.7,12.8,4
			c1-1.1,1.9-2.1,3-3.4c0.3-1.7,0.8-3.9,0.9-6.1c0.2-2.2,0.2-4.4,0-6.5C316.3,63.3,317.3,60.9,315.7,59z M281.8,69.9
			c-2.9-0.4-5.6-1-8.2-1.1c-2.6-0.1-4.9-1.4-7.5-1.1c-2.7,0.3-5.5,0.1-8.5,0.1c0.1,1.5,0.1,2.6,0.2,3.5c6.1,1.2,11.9,2.3,17.5,3.5
			c0.1,0.5,0.2,0.9,0.2,1c2.2-0.2,4.2-0.5,6.3-0.7C281.8,73.4,281.8,71.7,281.8,69.9z M226.7,47.7c0,2.2-0.3,4.5,0.9,6.6
			c0.1,0.2,0.4,0.2,0.7,0.4c0.6-1,1.2-1.9,1.8-2.8c0.5,0.2,0.8,0.3,1.2,0.4c-0.7,1.9-1.3,3.9-2,5.9c0.2,0.1,0.4,0.2,0.6,0.3
			c2-2.4,3.9-4.7,6-7.2c0-3-0.5-4-2.1-4c-0.7,0.6-1.4,1.2-2.1,1.8c-0.2-0.1-0.3-0.2-0.5-0.4c0.3-0.7,0.6-1.4,0.9-2.2
			c-1.5,0-3,0-4.2,0C227.4,47,227.1,47.3,226.7,47.7z M219.9,109.1c0.7-2.1,1.2-4.1,1.9-6c0.9-2.6,2.1-5.1,2.9-7.7
			c0.5-1.5,0.6-3.3-1.8-4.3c-2.3,4.8-4.6,9.6-6.6,13.9C217.7,106.7,218.7,107.8,219.9,109.1z M228.7,111.3c-0.3-3.2,0.3-5.6-0.8-7.8
			c0.6-0.1,1-0.3,1.5-0.4c0-3,0-6,0-9c-0.5-0.1-0.8-0.1-1.4-0.1c-1.3,5.1-2.6,10.2-4,15.6C225.2,110.1,226.7,110.6,228.7,111.3z
			 M240,60.6c0.9-1.3,1.8-2.7,2.7-4.1c-0.4-2.5-1.7-4.1-3.4-5.4c-2.7,1.8-0.5,4.7-2.1,6.9c-0.9,1.4-0.2,3.8-0.2,5.9
			c1.3-0.4,2.5-0.8,3.9-1.2C240.7,62,240.4,61.5,240,60.6z M200.6,78.1c1.3,0,2.3,0.2,3.1,0c3.6-1,7.2-2,10.7-3c0-0.9,0-1.6,0-2.3
			c-2.9,0.7-5.6,1.9-8.6,1.6c-2-0.2-3.8,0-5.3,1.5C200.6,76.5,200.6,77.1,200.6,78.1z M231.2,104.5c-2.5,6-1.5,12.2-1.8,18.4
			c0.8,0,1.2,0,1.8,0C231.2,116.7,231.2,110.6,231.2,104.5z M223.5,50c-2.8,0.5-3.1,2.8-3.9,4.8c-0.1,0.2-0.1,0.4-0.2,0.6
			c0.6,0.2,1.1,0.4,1.9,0.6c-0.3,1-0.6,2-0.9,2.9c0.6,0.6,1.5,1.3,3,2.7C221.8,57.3,225.2,53.9,223.5,50z M225.3,83.7
			c-3.3,2.5,0.7,4.8-0.6,7c1.1,0.5,2,0.8,3.2,1.3c-0.6-2.7-1-5-1.6-7.3C226.3,84.4,225.7,84.1,225.3,83.7z M223.7,64.6
			c0.3,0.1,0.5,0.3,0.8,0.4c1-2.4,2-4.8,3.1-7.3c-1.6,0.5-0.1-3.1-2.5-1.8C224.6,58.8,224.2,61.7,223.7,64.6z M248.4,67.9
			c0,1.8,0,3.6,0,5.4c1.3-0.8,2.4-1.6,3.7-2.4c-0.5-1-1-2-1.5-3C249.9,67.9,249.2,67.9,248.4,67.9z M232.1,95.8
			c0.4,1.9,0.8,4.3,1.3,6.7c0.2,0,0.3,0,0.5-0.1c0-2.8,0-5.6,0-8.7C233.3,94.4,232.9,94.9,232.1,95.8z M256.6,73.4
			c-0.9,0-1.6-0.2-2.1,0c-0.6,0.3-1.1,0.9-1.7,1.3c2.2,1.7,3,1.9,3.8,0.9C256.6,75.1,256.6,74.5,256.6,73.4z M240.3,115.6
			c-1.3,0.3-1.9,0.2-2.1,0.4c-0.3,0.3-0.2,1.1-0.3,3.8c0.7-0.1,2.1,0.2,2.1,0C240.5,117.2,240.5,117.4,240.3,115.6z M236.7,88.4
			c0.2-2.1,0.5-4.2,0.7-6.6c-0.1-0.1-0.5-0.5-1.5-1.4C236.2,83.4,235.8,85.9,236.7,88.4z M253.6,67.9c0.5,1.8,1,2.9,2.9,2.7
			c0-0.9,0-1.8,0-2.7C255.6,67.9,254.9,67.9,253.6,67.9z M231.2,97.9c-0.3,0-0.5,0-0.8,0c0,1.7,0,3.3,0,5c0,0.1,0.4,0.2,0.7,0.4
			C231.2,101.4,231.2,99.6,231.2,97.9z M238.7,67.4c0,0.4,0.1,0.7,0.1,1.1c0.9,0,1.9,0,2.9,0c-0.1-0.7-0.2-1.1-0.4-1.8
			C240.4,67,239.6,67.2,238.7,67.4z M256.6,62.3c1.2-0.2,2-0.3,3.5-0.5c-0.9-1.1-1.4-1.8-2-2.4C257.6,60.2,257.2,61.1,256.6,62.3z
			 M311,83.1c0,0.2,0,0.3,0,0.5c1.1,0,2.3,0,3.6,0c-0.1-0.7-0.2-1.2-0.2-1.5C313.2,82.5,312.1,82.8,311,83.1z M315.6,52.6
			c0-0.2,0-0.3,0-0.5c-1.6,0-3.1,0-4.7,0c0,0.2,0,0.3,0,0.5C312.4,52.6,314,52.6,315.6,52.6z M229.6,73c0.7-0.3,1.3-0.6,2-0.9
			c-0.1-0.2-0.2-0.4-0.4-0.6c-1.1,0.1-2.3,0.2-4,0.3C228.6,72.5,229.3,72.9,229.6,73z M306.4,53c0,0.3,0,0.5,0,0.8
			c1.1-0.1,2.3-0.2,3.4-0.2c0-0.2,0-0.4,0-0.6C308.6,53,307.5,53,306.4,53z M251.7,67.9c0-2,0-2.9,0-3.9c-0.6,0.1-1.1,0.2-1.7,0.3
			c0.4,0.5,0.7,0.7,0.8,1C251.1,65.8,251.2,66.4,251.7,67.9z M224.6,78.1c-0.2,0-0.3,0-0.5,0c0,0.9,0,1.9,0,2.8c0.2,0,0.3,0,0.5,0
			C224.6,80,224.6,79,224.6,78.1z M233.1,108.2c-0.3,0-0.6,0-0.8,0.1c0.1,0.8,0.2,1.7,0.3,2.5c0.2,0,0.3,0,0.5,0
			C233.1,109.8,233.1,109,233.1,108.2z M308.8,82.6c0-0.3,0-0.6,0-0.8c-0.8,0.1-1.7,0.2-2.5,0.3c0,0.2,0,0.3,0,0.5
			C307.2,82.6,308,82.6,308.8,82.6z M244.3,59.5c-0.3,0-0.5,0.1-0.8,0.1c0.1,0.5,0.2,1,0.4,1.5c0.1,0,0.3,0,0.4-0.1
			C244.3,60.6,244.3,60.1,244.3,59.5z M255.7,62c0-0.2,0-0.3,0-0.5c-0.6,0-1.2,0-1.9,0c0,0.2,0,0.3,0,0.5
			C254.5,62,255.1,62,255.7,62z M290.1,78.9c0-0.3,0-0.5-0.1-0.8c-0.5,0.1-1,0.2-1.6,0.3c0,0.2,0,0.3,0.1,0.5
			C289.1,78.9,289.6,78.9,290.1,78.9z M223.7,75.3c-0.2,0-0.3,0-0.5,0c0,0.6,0,1.2,0,1.9c0.2,0,0.3,0,0.5,0
			C223.7,76.5,223.7,75.9,223.7,75.3z M225.5,96.8c-0.2,0-0.3,0-0.5,0c0,0.6,0,1.2,0,1.9c0.2,0,0.3,0,0.5,0
			C225.5,98,225.5,97.4,225.5,96.8z M240.5,97.7c-0.2,0-0.3,0-0.5,0c0,0.6,0,1.2,0,1.9c0.2,0,0.3,0,0.5,0
			C240.5,99,240.5,98.4,240.5,97.7z M240,107.9c0.3,0,0.5-0.1,0.8-0.1c-0.1-0.5-0.2-1-0.4-1.5c-0.1,0-0.3,0-0.4,0.1
			C240,106.8,240,107.4,240,107.9z M285.3,77.2c-0.1,0-0.2,0-0.3,0c0,0.3,0,0.6,0,0.9c0.1,0,0.2,0,0.3,0
			C285.3,77.8,285.3,77.5,285.3,77.2z M298.7,55.3c0-0.1,0-0.2,0-0.3c-0.3,0-0.6,0-0.9,0c0,0.1,0,0.2,0,0.3
			C298.1,55.3,298.4,55.3,298.7,55.3z M246.3,85c0,0.1,0,0.2,0,0.3c0.3,0,0.6,0,0.9,0c0-0.1,0-0.2,0-0.3C247,85,246.7,85,246.3,85z
			 M232.9,73.4c-0.1,0-0.2,0-0.3,0c0,0.3,0,0.6,0,0.9c0.1,0,0.2,0,0.3,0C232.9,74,232.9,73.7,232.9,73.4z M302.8,54.7
			c0.1,0,0.2,0,0.3,0c0-0.3,0-0.6,0-0.9c-0.1,0-0.2,0-0.3,0C302.8,54.1,302.8,54.4,302.8,54.7z M240.7,94.3c0,0.1,0,0.2,0,0.3
			c0.3,0,0.6,0,0.9,0c0-0.1,0-0.2,0-0.3C241.4,94.3,241,94.3,240.7,94.3z M241.7,110.2c0,0.1,0,0.2,0,0.3c0.3,0,0.6,0,0.9,0
			c0-0.1,0-0.2,0-0.3C242.3,110.2,242,110.2,241.7,110.2z M246.3,62.5c0,0.1,0,0.2,0,0.3c0.3,0,0.6,0,0.9,0c0-0.1,0-0.2,0-0.3
			C247,62.5,246.7,62.5,246.3,62.5z"/>
		<path fill="#FFFFFF" d="M192.1,81.8c1.8-1.9,4.2-1.9,6.5-1.9C196.8,81.9,194.5,81.9,192.1,81.8z"/>
		<path fill="#FFFFFF" d="M250.1,112.7c0,1.4,0,2.8,0,3.8c-0.7,0.6-1.3,1-1.9,1.5c0-0.8,0-1.6,0-2.5c1.3,0,0.8-1,1-1.6
			C249.3,113.4,249.8,113.1,250.1,112.7z"/>
		<path fill="#FFFFFF" d="M254.6,57.7c0.8-0.7,7.7-4.5,8.6-5.2C263.1,54,256.1,57.8,254.6,57.7z"/>
		<path fill="#FFFFFF" d="M242.6,22.7c1.3,0,9.2,5,10.1,5c0.1,0.5-0.3,0.4-0.6,1.5C250.9,28.5,243.9,23.4,242.6,22.7z"/>
		<path fill="#FFFFFF" d="M251.7,34.9c0.7,0.1,6.8,4.3,6.9,5.7c-0.1,0-0.1,0.7-0.5,0.2c-1.1-1.6-5.6-4.1-6.7-5.6
			C251.2,35,251.7,35.1,251.7,34.9z"/>
		<path fill="#FFFFFF" d="M257.4,46.7c0.3,0.2,5.6,5.6,5.8,5.8c-0.1,0.1-0.2,0.2-0.3,0.3c-0.2-0.2-5.4-5.5-5.7-5.9
			C257.2,46.8,257.3,46.8,257.4,46.7z"/>
		<path fill="#FFFFFF" d="M261.3,78.1c0.2-0.3,0.4-0.5,0.6-0.8c0.1,0.3,0.2,0.5,0.3,0.8C261.9,78.1,261.6,78.1,261.3,78.1z"/>
		<path fill="#FFFFFF" d="M258.1,40.7c0,0.3,0.3,0.1,0.3,0.4c-0.2,0-3.8,3.8-5.4,5.4c-0.6,0.6-0.2,0-0.3,0
			C253.1,46.1,257.8,41,258.1,40.7z"/>
		<path fill="#FFFFFF" d="M257.6,41.6"/>
		<path fill="#FFFFFF" d="M256.6,42.6"/>
		<path fill="#FFFFFF" d="M258.5,40.7"/>
		<path fill="#FFFFFF" d="M257.6,41.6"/>
		<path fill="#FFFFFF" d="M252,35.1"/>
		<path fill="#FFFFFF" d="M200.5,96.8c0.3-0.3,0.6-0.6,0.9-0.9C201.1,96.2,200.8,96.5,200.5,96.8z"/>
		<path fill="#FFFFFF" d="M199.6,97.7c0.3-0.3,0.6-0.6,0.9-0.9C200.2,97.1,199.9,97.4,199.6,97.7z"/>
		<path fill="#FFFFFF" d="M248.9,33.4c0.2-0.3,3.1-5.2,3.4-5.5c0.1,0.1,0.2,0.2,0.3,0.3c-0.2,0.2-1.2,3-1.5,3.2c0,0-0.9,1.8-1.5,2.3
			C249.1,34.2,249,33.4,248.9,33.4z"/>
		<path fill="#FFFFFF" d="M209.8,104.4c-0.3-0.2-0.5-0.4-0.8-0.7c0.1-0.1,0.2-0.2,0.3-0.3c0.2,0.3,0.4,0.5,0.7,0.8
			C209.9,104.3,209.8,104.3,209.8,104.4z"/>
		<path fill="#FFFFFF" d="M186.5,65.9c0.3-0.3,0.6-0.6,0.9-0.9C187.1,65.3,186.8,65.6,186.5,65.9z"/>
		<path fill="#FFFFFF" d="M310.1,66.5c-0.4,0.5-0.8,1-1.6,2c-0.2-1.2-0.3-1.7-0.4-2.3c0.6-0.1,1-0.2,1.4-0.3
			C309.7,66.1,309.9,66.3,310.1,66.5z"/>
		<path fill="#FFFFFF" d="M309.8,74.5c0,0.5,0,1,0,1.6c-0.2,0-0.3,0-0.5,0.1c-0.1-0.5-0.2-1-0.3-1.6
			C309.2,74.6,309.5,74.5,309.8,74.5z"/>
		<path fill="#FFFFFF" d="M302.6,76.4c0.5,0,1,0,1.6,0c0,0.1,0,0.3,0.1,0.4c-0.5,0.1-1,0.2-1.5,0.4
			C302.7,76.9,302.6,76.7,302.6,76.4z"/>
		<path fill="#FFFFFF" d="M315.6,71.2c-0.3,0-0.6,0-0.9,0c0-0.1,0-0.2,0-0.3c0.3,0,0.6,0,0.9,0C315.6,71,315.6,71.1,315.6,71.2z"/>
		<path fill="#FFFFFF" d="M188.5,68.9c0.5,0,1,0,1.5,0c0,0.1,0,0.3,0.1,0.4c-0.5,0.1-1,0.2-1.5,0.4
			C188.6,69.4,188.5,69.2,188.5,68.9z"/>
		<path fill="#FFFFFF" d="M208,90.3c1.3-1.5,2.6-3,3.9-4.3c0.3-0.3,1.1-0.2,1.7-0.3c-1.3,1.5-2.6,3-3.9,4.3
			C209.3,90.2,208.6,90.2,208,90.3z"/>
		<path fill="#FFFFFF" d="M213.6,85.6c0.3-0.3,0.6-0.6,0.9-0.9C214.2,85,213.9,85.3,213.6,85.6z"/>
		<path fill="#FFFFFF" d="M207.1,91.2c0.3-0.3,0.6-0.6,0.9-0.9C207.7,90.6,207.4,90.9,207.1,91.2z"/>
		<path fill="#FFFFFF" d="M202.4,100.5c-0.3,0-0.6,0-0.9,0c0.2-0.3,0.4-0.5,0.6-0.8C202.2,100,202.3,100.3,202.4,100.5z"/>
		<path fill="#FFFFFF" d="M219.8,103.3c0,0.3,0,0.6,0,0.9c-0.1,0-0.2,0-0.3,0c0-0.3,0-0.6,0-0.9
			C219.6,103.3,219.7,103.3,219.8,103.3z"/>
		<path fill="#FFFFFF" d="M232.3,86.5c-0.3,0.3-0.6,0.6-0.9,0.9c-1.4-0.1-0.8-1.2-0.9-1.9c0.3-0.3,0.6-0.6,0.9-0.9
			C232.8,84.7,232.2,85.8,232.3,86.5z"/>
		<path fill="#FFFFFF" d="M228.6,78.1c0-0.3,0-0.6,0-0.9c0.3,0,0.6,0,0.9,0C229.2,77.5,228.9,77.8,228.6,78.1z"/>
		<path fill="#FFFFFF" d="M249.2,100.5c-0.3,0-0.6,0-0.9,0c0.3-0.3,0.6-0.6,0.9-0.9C249.2,99.9,249.2,100.2,249.2,100.5z"/>
		<path fill="#FFFFFF" d="M228.6,77.2c-0.3,0-0.6,0-0.9,0c0.3-0.3,0.6-0.6,0.9-0.9C228.6,76.5,228.6,76.8,228.6,77.2z"/>
		<path fill="#FFFFFF" d="M217.4,92.1c-0.3,0-0.6,0-0.9,0c0.3-0.3,0.6-0.6,0.9-0.9C217.4,91.5,217.4,91.8,217.4,92.1z"/>
	</g>
	<path display="inline" d="M242.3,19.2"/>
	<path display="inline" d="M232.1,16.7"/>
	<path display="inline" d="M197.1,31"/>
</g>
<g>
	<text transform="matrix(1 0 0 1 53.4995 165.2754)" fill="#FFFFFF" font-family="'BerlingLTStd-Roman'" font-size="53.2967">AN</text>
	
		<text transform="matrix(1 0 0 1 151.4995 165.2754)" fill="#FFFFFF" font-family="'BerlingLTStd-Roman'" font-size="53.2967" letter-spacing="-2">MIGUELIT</text>
	<text transform="matrix(1.0378 0 0 1 17.8345 175.6787)" fill="#FFFFFF" font-family="'BerlingLTStd-Roman'" font-size="67.0335">S</text>
	<text transform="matrix(1.0192 0 0 1 397.834 175.3936)" fill="#FFFFFF" font-family="'BerlingLTStd-Roman'" font-size="68.2566">O</text>
	
		<text transform="matrix(0.8557 0 0 1 56.5 183.9522)" fill="#FFFFFF" font-family="'BerlingLTStd-Bold'" font-size="16.8855" letter-spacing="8.2">MUTUAL WATER COMPANY</text>
</g>
<g>
	<line fill="none" stroke="#FFFFFF" stroke-width="1.5" stroke-miterlimit="10" x1="22.5" y1="122" x2="204.5" y2="122"/>
	<line fill="none" stroke="#FFFFFF" stroke-width="1.5" stroke-miterlimit="10" x1="257.5" y1="122" x2="454" y2="122"/>
</g>
<g>
	<g>
		<path fill="#FFFFFF" d="M256,61.6c0.8-0.7,7.7-4.5,8.6-5.2C264.5,57.9,257.5,61.7,256,61.6z"/>
		<path fill="#FFFFFF" d="M244,26.6c1.3,0,9.2,5,10.1,5c0.1,0.5-0.3,0.4-0.6,1.5C252.3,32.4,245.2,27.2,244,26.6z"/>
		<path fill="#FFFFFF" d="M253,38.8c0.7,0.1,6.8,4.3,6.9,5.7c-0.1,0-0.1,0.7-0.5,0.2c-1.1-1.6-5.6-4.1-6.7-5.6
			C252.6,38.9,253,39,253,38.8z"/>
		<path fill="#FFFFFF" d="M258.7,50.6c0.3,0.2,5.6,5.6,5.8,5.8c-0.1,0.1-0.2,0.2-0.3,0.3c-0.2-0.2-5.4-5.5-5.7-5.9
			C258.6,50.7,258.7,50.6,258.7,50.6z"/>
		<path fill="#FFFFFF" d="M259.5,44.6c0,0.3,0.3,0.1,0.3,0.4c-0.2,0-3.8,3.8-5.4,5.4c-0.6,0.6-0.2,0-0.3,0
			C254.5,50,259.2,44.9,259.5,44.6z"/>
		<path fill="#FFFFFF" d="M259,45.5"/>
		<path fill="#FFFFFF" d="M258,46.4"/>
		<path fill="#FFFFFF" d="M259.9,44.6"/>
		<path fill="#FFFFFF" d="M259,45.5"/>
		<path fill="#FFFFFF" d="M253.3,38.9"/>
		<path fill="#FFFFFF" d="M250.3,37.3c0.2-0.3,3.1-5.2,3.4-5.5c0.1,0.1,0.2,0.2,0.3,0.3c-0.2,0.2-1.2,3-1.5,3.2c0,0-0.9,1.8-1.5,2.3
			C250.5,38.1,250.3,37.3,250.3,37.3z"/>
		<path fill="#FFFFFF" d="M233.7,90.4c-0.3,0.3-0.6,0.6-0.9,0.9c-1.4-0.1-0.8-1.2-0.9-1.9c0.3-0.3,0.6-0.6,0.9-0.9
			C234.2,88.6,233.6,89.7,233.7,90.4z"/>
		<path fill="#FFFFFF" d="M230,82c0-0.3,0-0.6,0-0.9c0.3,0,0.6,0,0.9,0C230.6,81.3,230.3,81.6,230,82z"/>
		<path fill="#FFFFFF" d="M230,81c-0.3,0-0.6,0-0.9,0c0.3-0.3,0.6-0.6,0.9-0.9C230,80.4,230,80.7,230,81z"/>
	</g>
	<path fill="#FFFFFF" d="M243.6,23.1"/>
	<path fill="#FFFFFF" d="M233.4,20.6"/>
	<path fill="#FFFFFF" d="M198.5,34.9"/>
	<path fill="#FFFFFF" d="M194,48.4"/>
	<polyline fill="#FFFFFF" points="254.3,53.6 254.9,56.7 254.4,57.1 253.5,54.3 	"/>
	<path fill="#FFFFFF" d="M296.2,84c0.1-0.2,0.2-0.5,0.3-0.7c-0.5-0.1-1-0.2-1.6-0.4c0,0.1-0.1,0.3-0.1,0.4
		C295.2,83.5,295.6,83.7,296.2,84z"/>
	<path fill="#FFFFFF" d="M205.9,107c1.1-1.1,2.1-2.2,3.2-3.3c1,1.1,2.2,2.4,3.5,3.8c-0.7,0.4-0.6,0.8-0.9,1
		c-0.2,0.7-0.7,1.2-1.1,1.8c-1.7,2.5-3.4,5-5.1,7.4c0.3,0.4,0.4,0.7,0.6,0.9c0.1,0.1-0.2,0,0,0c0.6-0.6,1.4-1.5,2-2.1
		c0.1-0.7,0.2-1.1,1.3-1.6c-0.1,0.7,0.2,1.4,0.4,1.9c-0.5,0.7,0,1.6-1.3,2.7c-0.8-0.4-2.3-1.4-2.8-1.7c0.8,2,1.8,4.8,4.2,5.6
		c3-3.5,3.7-8.3,6.9-11.7c1.5,0.9,2.8,1.7,4.2,2.5c-1.2,4.2-2.5,8.3-3.7,12.7c1.1,0.6,2.3,1.3,4.1,2.3c2.4-4,1.7-8.7,3.8-12.9
		c1.6,0.5,2.8,0.8,4.6,1.3c0,2.2,0.2,4,0,5.7c-0.2,1.8-0.2,3.5-1.3,5.1c0.5,0.5,0.8,0.8,1.1,1.1c1.5,0,2.8,0,4.5,0
		c0-4.1,0-8.1,0-11.7c1.2-0.5,1.8-0.8,2.6-1c0.6,4.1-0.7,7.8-1.5,11.7l-0.3,2.4l0.1,7c0,0.1-0.4,8.5-0.1,8.7c1-5.2,0.8-3.4,1-5.2
		c1.4-7.5,0,0,1.4-7.5c0.6-3.8,1.3-7.7,2-9.2c0.8,0,1.6,0.1,2.5,0.2c-0.9,5.6-2.7,16.1-1.7,21.7c0.9-5.2,1.7-10.5,2.5-15.7l1.7-8.1
		l0.5-5.4c1-0.7,0.7-1.3,1.2-1.6c0.1-1.8,0.2-3.2,0.3-4.6c0.9,1.4,1.2,2.9,1.7,4.2c0.6,1.4,0.5,3.1,1.8,4.1c0.2-3.5-1.4-6.5-2.6-9.6
		c-0.1-0.2,0.2-0.4,0.3-0.7c0.3,0,0.6,0,1.1,0c0.6,2.4,2.5,4.3,3,6.8c0,0.1-1.8,3-1.8,3.1c0,0.1,0,0.2,0,0.4c0.2,0,2.2-2.8,2.3-3
		c0.7-0.9,0.5-1.6,0.3-2.4c-0.5-1.3-1.3-2.5-1.9-3.9c-0.4-0.9-0.5-1.8-0.7-2.5l1.8-2c0.7-0.1,1.1-0.2,1.6-0.3c0,0.2,0.4,0.5,0.5,0.9
		c1.6,2.2,3.3,4.4,5.3,6.9c-0.3-3.5-0.6-6.4-0.9-9.7c-0.7-0.5-3.5-3.3-4.5-4.1c0,0.6,2.9,3.3,3.1,4c0.4,0.5,0.4,0.7,0.5,1.3
		c0,1.1,0,2.1,0,3.2c-0.2,0-0.4,0.1-0.5,0.1c-1.3-1.2-1.4-1.5-2.5-2.5l-1.1-2.1c-0.8-1.7-1.5-3.5-2.4-5.2c-0.3-0.6-2.6-2.9-3.2-3.3
		c0.3,1.1,2,4,2.5,5.2c0.6,1.4,1,1.4,1.5,2.8c0.3,0.2,0.4,0.5,0.8,1c-0.3,0.1-0.9,0.6-1.2,0.7c-0.2,0.3-0.6,0.3-0.8,0.6
		c-0.4,0.2-1,0.9-1.1,0.7c-0.4-0.5,0,0-0.7-0.6c-0.4-0.4-0.8-0.8-1.3-1.3c0-2.5,0-5.1,0-7.6c0.2-0.2,0.3-0.3,0.4-0.4
		c0.1,0,0.2,0.2,0.3,0.2c0.4,0.2,0.7,0.4,1.1,0.6c-0.2-0.7-0.4-1.3-0.6-2c-0.1-0.6-0.2-1.1-0.4-1.7c-0.3-0.2-0.6-0.4-0.8-0.6
		c0.1-0.1,0.2-0.2,0.3-0.3c0.2,0.3,0.4,0.5,0.7,0.8c-0.1,0.1-0.1,0.1-0.1,0.1c1,0.6,1.9,1.2,2.8,1.6c0.1-0.7,0.1-1.1,0.2-1.7
		c1.3,0.8,2.5,1.5,3.7,2.2c-0.5,0.5-0.8,0.8-1.5,1.5c-0.8-0.5-1.4-1.5-2.4-2c-0.1,1.2,0.3,1.9,1,2.6c0.6,0.7,0.8,0.8,1.6,2.2
		c0.4,0.4,0.2,0.4,1.1,0.9c-0.1-2.1,0.9-3.1,3-4.8c1.5,1.4,4,3,5.5,4.4l-1-10.1c-1.1-0.8-2-1.4-3.1-2.2c0.6-1.5,1.1-2.8,1.6-4.1
		c2.1,0.7,4,1.4,6.6,2.3c-1.4-1.8-2.2-2.4-3.2-3.6l-1-0.5c-1.2-0.4-2.5-0.8-3.7-1.1c0.4-0.9,0.8-1.7,1.2-2.5
		c5.1-0.1,7.3,0.6,13.9,2.1c8.2,1.8,9.1,2,13.6,3.2c4.5,1.2,9.1,2,13.7,2.9c4.6,1,9.2,1.6,14.1,2.9c0.6-0.8,1.4-1.7,2.1-2.6
		c0.4-3.5,0.7-7.1,1.1-10.7l0.9-9.2c0.1-0.5-0.3-1.9-0.4-2.4c-0.9-3.7-0.3-3-0.4-4.6c-0.1-1.7,0-3.3,0-4.8c-0.7-0.7-1.2-1-1.5-1.3
		c-1.4,0.3-2.5,0.8-3.6,0.8c-2.3,0-4.3,1.6-6.6,1c-3.6,1.9-7.7,1.7-11.5,2.7c-3.5,1-7.2,1.3-10.9,1.9c-1,1.7-3,0.2-4.1,1.3l-7.6,1.7
		c-7.4,1-2.5,0.1-7,1.4c-1.5,0.2-1.1,0.2-2,0.3c-0.7,0-1.4,0-2.1,0c0-1.2-0.9-2.9-1.6-2.8c-1.4,0-1.4,0-2.3-0.3c0-0.6,0-1.1,0-1.6
		c-0.7,0.2-1.4,0.4-2.1,0.7c-2.6,0.9-5,2.5-7.4,1.5c-0.8-0.3-1.5-0.5-2.6-0.9c2.8-2.8,5-5.1,7.2-7.2l2.5-2.2
		c2.6-1.7,2.1-1.1,3.3-1.3c0.2-1.5-1.2-1.7-1.9-2.8l-0.6-0.3c-0.1-0.3-1.2,1.5-1.3,1.2c-3,2.8-6,5.5-9,8.3c-1.1-1.4-2.3-2.9-3.3-4.2
		c2-2.7,3.7-5,5.6-7.5c0,0,0.5-1,0.6-0.9c0.6,0.3,1.2,1.9,1.2,1.9s0.4,0,0.4-0.3c0-0.9-1.1-2.5-1.1-2.5l3.7-5.2l-3-1.7
		c-2.5,5.1-5.3,9-8.2,13.9c-0.3,0.5-0.9,0.7-2.1,1.5c0.5-5.5,1.7-10.1,2.1-14.4c0,0,0.2-0.9,0.4-0.8c1.3,0.3,1.4,1.1,2,1.4
		c0.4,0.2,0.4-0.3,0.3-0.5c-0.3-1.3-2.1-2.1-2.1-2.3c0.2-0.9,0.6-2.5,0.9-3.3c1-3,0.8-2.8,1.4-4.1c1,0,6.9,3.3,7.7,3.3
		c-1.5-1.3-7.9-5.2-9.3-6c0.3-1.5,0.5-2.8,0.5-2.8c-1.9-1.5-4.2-2.2-5.8-2.5c-1.3-0.3-2.8-0.8-4.3-1.3c0-1.1,0-2.5,0-2.7
		c-0.9,0-6.9,0-7.8,0c-0.4,0.3-0.8,0.6-1.2,0.9c-0.2-0.3-0.5-0.6-0.7-0.9c-1.2,0-2.5,0-3.7,0l-4.7,1.5c-2.3,0.7-5,1.1-6.4,3.1
		c-1.7,2.2-4.6,2.1-6.4,4c-1.2,1.2-2.8,2.1-4.5,3.3c1,1.7,1.8,3,2.5,4.2c-0.6,1.5,0.5-0.1-2.6,1.5c0,0,0-0.1,0-0.1
		c-2.3,0.9-7.2,7.5-9,8.7c1.3,2.1,4.1,2.1,4.6,4.1c-0.3,0.7-0.5,1.1-0.7,1.4c-2.4,2.9-7.6,10.1-7.5,13c4.8,1.8,9.5,3.5,14.1,5.2
		c-0.1,0.6-0.2,0.9-0.3,1.3c-1.4-1-3-0.6-4.6-0.8c-1.6-0.2-3.1-0.6-5-1c-0.8,0.7-3.8,4.3-3.5,5.9c0.7-0.5,3.5-4,4.2-4.5
		c5.9,1.1,11.9,2.2,18,3.3c0.2-0.2,0.5-0.5,0.6-0.6c2.2,0.7,4.2,1.4,6.3,2c-1.9,2.7-5.2,2.6-7.9,3.2c-2.1,0.4-4.5,0.2-7.3-0.4
		c-5.3-0.2-7.6-0.2-12.4-0.3c-0.6-0.6-1-1-1.4-1.4c1.3-0.8,2.8-5.1,2.9-6.3c-1.5,0.9-3.9,5.4-3.9,7c0,2,0,4,0,5.1
		c2.6-0.1,2.5,0,3.3,0.1c3.9,0,5.5,0.1,9.7,0c1,2.3,1.3,0.7,1,4.9c3.9,0.2,7.4-1.8,11.2-2.3c1-0.1,2.1-0.3,3-0.5
		c0.8-0.2,0.5-0.1,2-0.5c0.8,0.8,1.6,1.5,1.3,1.9c-1.8,2.1-5.2,3.1-13.1,6.1c-0.3-0.3-0.7-0.6-1-0.9l-6.2,2.2
		c-0.1,0-0.4-0.2-0.6-0.2c-1.5,0.9-2.9,1.8-4.7,3c0-1.8,0-3.1,0-4.7c0.4-0.5,10.9-4.2,11.4-4.9c0.1-0.1,0.2-0.3,0.3-0.4
		c-0.2-0.1-10.4,2.9-10.6,2.9c-1,0-1.9,0.6-2.1,1.4c-1,3.9-2.3,8,0.7,12.1c4-2.2,8-4.4,12-6.6c0.6,1.3,1.3,2.7,1.9,3.9
		c-0.9,1.1-1.7,2.2-2.6,3.2c0.6-0.1,1.3,0,1.7-0.3c1.2-1.2,2.4-2.6,3.5-3.9c0.1-0.2,9.6-8.2,9.8-8.3c-0.1,0-0.3,0-0.4,0
		c-0.2,0-9.7,7.9-9.9,7.9c-0.5,0-1.1,0-1.8,0c-0.1-1.1-0.1-2.3-0.2-3.5c4.1-2.5,8-4.9,12.1-7.4c0,0.5,0.1,1.2,0.1,1.8
		c-0.7,0.9-1.3,1.7-1.9,2.6c0.8-0.2,1.6-0.4,2.7-0.7c0,0.5,0.1,1.2,0.1,2.1c-2.2,1.7-3.9,3.7-6.1,5.8c-1.5,1.3-3.7,4.4-5.2,5.9
		c-1.1,1.1-1.6,1.4-3.3,2.9c-0.2,0.3-0.7,0.3-0.9,0.6l-3.7,4c-0.2-0.7-0.5-1.4-0.7-2c-0.2,0.2-0.4,0.3-0.5,0.5c0-0.9,0-1.8,0-2.7
		c0.9-1.2,5.6-4.9,6.5-6c-2-0.4-6.2,4-7.4,4.9c-0.1,7.2-0.1,7.2,2.5,9.6c1.5-1.8,2.9-3,4.1-4.5L205.9,107z M215.8,78.9
		c-3.5,1-7.1,2.1-10.7,3c-0.9,0.2-1.8,0-3.1,0c0-1,0-1.6,0-2.2c1.4-1.5,3.3-1.7,5.3-1.5c3,0.2,5.7-0.9,8.6-1.6
		C215.8,77.3,215.8,78,215.8,78.9z M237.8,33.8c-0.4-0.7-3-1.2-3-1.2l0.7-11.4c1.3-0.2,5.4,1.5,7.8,1.9c0,0-0.6,4.9-0.8,6.5
		c-1.7,6.9-3.5,13.9-5.4,21.2c-0.8-1.1-1.3-1.8-1.8-2.5c-0.5,0.4-0.8,0.7-1.1,0.9c-0.7-2.8-0.3-5-0.1-7.4c0.3-4.5,0.6-5.2,0.6-7.2
		l-0.1-0.8c0,0,1.9,0.5,3.2,1C237.9,34.9,237.9,34,237.8,33.8z M226.5,18.6c0.8-0.4,4.7-0.7,6.6-1c0.3-0.1,0.6,1.5,0.8,2.3
		c0.2,9.5-1.5,18.5-1.1,27.6c0,0.2-0.3,0.5-0.6,0.9c-0.6-0.3-1.2-0.7-1.7-0.9c-0.7,0.3-1.3,0.6-2,0.9l-1.4-10.6l-0.5-4.4
		c0,0,2.3-0.5,3.9-0.3c0.2,0,0.2-0.9,0-1c-0.9-0.3-4-0.3-4-0.3l-0.1-0.9l-0.2-1.5C226.8,25.6,224.3,21.9,226.5,18.6z M230,87.6
		c-0.3-0.1-0.6-0.3-0.8-0.6c0.1-0.1,0.2-0.2,0.3-0.3C229.6,87,229.8,87.2,230,87.6C230,87.5,230,87.6,230,87.6
		C230,87.6,230,87.6,230,87.6z M229.3,96c-1.2-0.5-2.1-0.9-3.2-1.3c1.4-2.2-2.7-4.5,0.6-7c0.4,0.4,0.9,0.7,1,1.1
		C228.3,90.9,228.7,93.2,229.3,96z M226.9,100.7c0,0.6,0,1.2,0,1.9c-0.2,0-0.3,0-0.5,0c0-0.6,0-1.2,0-1.9
		C226.6,100.7,226.8,100.7,226.9,100.7z M226,84.8c-0.2,0-0.3,0-0.5,0c0-0.9,0-1.9,0-2.8c0.2,0,0.3,0,0.5,0
		C226,82.9,226,83.8,226,84.8z M225.9,68.9c-0.3-0.1-0.5-0.3-0.8-0.4c0.4-2.9,0.9-5.8,1.3-8.7c2.5-1.3,1,2.3,2.5,1.8
		C227.9,64.2,226.9,66.5,225.9,68.9z M224.8,65.6c-1.5-1.4-2.3-2.1-3-2.7c0.3-0.9,0.6-1.9,0.9-2.9c-0.8-0.3-1.3-0.4-1.9-0.6
		c0.1-0.2,0.1-0.4,0.2-0.6c0.8-2,1.1-4.4,3.9-4.8C226.6,57.7,223.2,61.2,224.8,65.6z M225.1,79.2c0,0.6,0,1.2,0,1.9
		c-0.2,0-0.3,0-0.5,0c0-0.6,0-1.2,0-1.9C224.7,79.2,224.9,79.2,225.1,79.2z M219.7,90.5c0.2,0,0.4,0,0.6-0.1
		c0.1,0.6,0.2,1.1,0.3,1.7c-0.3,0.1-0.6,0.1-0.9,0.1C219.7,91.7,219.7,91.1,219.7,90.5z M220.6,92.2
		C220.6,92.2,220.6,92.2,220.6,92.2c0.3,0.1,0.6,0.3,0.9,0.6c-0.1,0.1-0.2,0.2-0.3,0.3C220.9,92.8,220.7,92.6,220.6,92.2
		C220.5,92.3,220.6,92.3,220.6,92.2z M221.2,87.5c-0.3-1-1.4-2.8,0-3.9c-0.2-0.8-0.4-1.5-0.6-2.2c0.7-0.4,1-0.4,1.2-0.4
		c1.2,2.3,1.7,4.8,1.5,7.4c-0.4,0.3-0.8,0.4-1.6,0.8C221.7,88.9,221.5,88.2,221.2,87.5z M223.4,88.5
		C223.4,88.5,223.4,88.5,223.4,88.5c0.3,0.1,0.6,0.4,0.8,0.6c-0.1,0.1-0.2,0.2-0.3,0.3C223.8,89.1,223.5,88.8,223.4,88.5
		C223.4,88.6,223.4,88.5,223.4,88.5z M222.2,17.6c0.7,1.6,1.4,3.1,1.3,5c0,1.7,0.6,3.5,0.8,5.2l1.9,14.1c0.2,2.3,0.4,4.7,0.6,7.1
		c-0.6,0-1.3,0-2.1,0c-0.8-0.9-1.7-2-2.9-3.5c-0.3-2.3-1.3-4.9-3-7.3c-0.1-0.6-0.2-1.2-0.3-1.7c0-0.1,3.4-2.2,3.4-2.3
		c-0.1-0.4,0.1-1.2-0.3-1.2c-0.5,0-3.6,2.4-3.7,2.1c-1.4-5-3.8-11.5-5-13.7C215.1,17.7,219.3,19.2,222.2,17.6z M193.5,40.4
		c0-0.8,4.2-4.9,4.9-6.1c0.6,0,1.1,0,1.9,0c2.8,1.7,3.6,5.1,5.8,7.5c2.3,2.4,9,10.6,11.8,13.8c-0.4-1.5-5.2-7.9-5.4-8.8l-2.2-3.7
		c0,0,2.2-3.1,2.9-4.2c0.2-0.2-0.4-1.2-0.6-1c-1.4,0.9-3.3,3.5-3.3,3.5l-0.4-0.6c-0.1-0.3-0.2-0.5-0.3-0.8l-1.6-2l-6.7-9.2
		c0.1-0.1,2.9-0.7,3-0.8l1.5-2.4c2.3-1.1,4.5-2.3,7.1-3.6c1.1,3.1,2.1,6,3.2,8.9c0.1,0.2,1.6,4.3,2.8,7.1c0.1,1.1,0.5,2,0.9,3
		c1.4,3.5,2.5,7,3.8,10.5c0.1,0.4,0.6,0.7,1.1,1.4c-1.8,0.9-3.6,1.7-5.7,2.7c0,0.1,0.1,0.6,0.1,1.4c0.6-0.5,0.9-0.8,1.4-1.3
		c0.5,2.2-0.7,3.4-2,4.8c-0.8,0-1.7,0-2.7,0c-2.8-2.5-5.7-5.2-9.1-8.2c0.2-1.2,0.5-2.8,0.9-4.6c-1-0.3-1.2,0.7-1.6,1.1
		c-0.3,0.3-0.3,1-0.6,1.8C199.6,47.9,197.1,43.6,193.5,40.4z M208.9,66c-1-1.1-2.1-1.4-3.2-2.7c-1.4,0-2.5-1-4.1-1
		c0.5-1.1,0.8-1.7,1.2-2.5c-0.4-0.1-0.9-0.2-1.6-0.3c-0.1,1.1-0.3,1.9-0.4,3.1c-3.6-1.8-6.7-4.5-10.7-5.1c-0.5-1.2,2.7-6.5,3.7-9
		c3.4,1.8,6.5,3.9,9.5,6.3c1.3,1.1,2.9,1.9,4.3,2.9c2,1.5,4,3,5.9,4.7c0.8,0.7,1.4,1.1,2.4,0.9c0.2-0.3,0.4-0.6,0.6-0.8
		c0.1,0.1,0.2,0.2,0.3,0.3c-0.3,0.2-0.5,0.4-0.8,0.7c-0.1-0.1-0.1-0.1-0.1-0.1c0.5,0.7,0.9,1.3,1.5,2.2c0.7-1.8,1.3-3.4,1.8-5
		c0.3,0,0.6,0,1.1,0c0.6,2.9,1.2,5.9,1.9,9.1c-0.2,0.3-0.7,0.9-1.2,1.5c-1.4-1-2.6-1.8-3.9-2.7c0.1-0.2,0.4-0.5,0.8-1
		c-0.5-0.2-1-0.5-1.7-0.8C214.1,68.3,211.6,66.3,208.9,66z M217.1,77.8c-0.8-1.1-0.1-3.2-0.1-5c1.9,0.7,3.7,1.4,5.5,2.1
		c-1.3,3.5-2,5.3-2.5,6.3C217.2,81.2,218.3,79.4,217.1,77.8z M218.2,82.9c0.3-0.2,0.6-0.4,0.9-0.6C218.9,82.5,218.6,82.7,218.2,82.9
		z M217.8,96c-0.6,0.3-0.7,0.8-1.6,1.4c-1.2,1.5-1.7,2.1-3.2,2.9l2.5-3.7c1.1-1.9,1.7-2.6,3.2-3.4c0,0.6,0,1.2,0,1.9L217.8,96z
		 M210.3,113.8c0.1-0.7-0.5-1.8,0.9-1.9C211.1,112.6,211.7,113.7,210.3,113.8z M212.2,111c0.1-0.7-0.5-1.8,0.9-1.9
		C213,109.8,213.6,110.9,212.2,111z M214.1,108.1c-0.7-1.9,1.3-2.6,2-3.7c1-1.6,1.5-3.8,3.6-4.7c0.1-0.7-0.5-1.8,0.9-1.9
		c0.1-0.7-0.5-1.8,0.9-1.9c0.2-0.3,0.4-0.6,0.6-0.8c0.1,0.1,0.2,0.2,0.3,0.3c-0.3,0.2-0.5,0.4-0.8,0.7c-0.1-0.1-0.1-0.1-0.1-0.1
		c-0.1,0.8,0.5,1.8-0.9,1.9c-0.1,0.7,0.5,1.8-0.9,1.9C218.8,103.2,217.4,106.3,214.1,108.1z M217.7,108.9c2-4.3,4.3-9.1,6.6-13.9
		c2.3,1.1,2.2,2.8,1.8,4.3c-0.8,2.6-2,5.1-2.9,7.7c-0.7,1.9-1.2,3.8-1.9,6C220.1,111.7,219.1,110.5,217.7,108.9z M220.1,126.9
		c-0.3,0-0.7,0-1.1,0c-0.1-0.4-0.4-0.9-0.3-1.2c2-6.5,3.9-13,6.4-19.4c0.2-0.8,0.2-1.7,0.2-2.7c0.9,1.6,0.9,1.6,0,2.6
		C224.2,113.3,222.7,120.2,220.1,126.9z M230.7,107c-0.5,0.1-0.9,0.2-1.5,0.4c1.2,2.2,0.5,4.6,0.8,7.8c-2-0.7-3.5-1.2-4.8-1.7
		c1.4-5.4,2.7-10.5,4-15.6c0.6,0.1,0.9,0.1,1.4,0.1C230.7,101,230.7,104,230.7,107z M232.6,126.8c-0.6,0-1,0-1.8,0
		c0.3-6.2-0.7-12.5,1.8-18.4C232.6,114.5,232.6,120.6,232.6,126.8z M231.8,101.8c0.3,0,0.5,0,0.8,0c0,1.8,0,3.5,0,5.4
		c-0.3-0.2-0.7-0.3-0.7-0.4C231.8,105.1,231.8,103.4,231.8,101.8z M234.5,114.5c-0.2,0-0.3,0-0.5,0c-0.1-0.8-0.2-1.7-0.3-2.5
		c0.3,0,0.6,0,0.8-0.1C234.5,112.9,234.5,113.7,234.5,114.5z M235.3,106.3c-0.2,0-0.3,0-0.5,0.1c-0.5-2.4-0.9-4.7-1.3-6.7
		c0.8-0.9,1.2-1.4,1.8-2.1C235.3,100.7,235.3,103.5,235.3,106.3z M235.5,91.2c-0.7-0.3-1.3-0.6-1.8-0.8c-0.3,0.3-0.6,0.6-0.9,0.9
		c-0.1,1,0.2,1.7,0.9,2.4c0.6,0.7,0.9,1.7,1.5,3c-1.2,0.1-1.9,0.2-2.6,0.2c-1.4-2.4-2.5-6.4-2.6-9.2c0.3,0.3,0.6,0.6,0.9,1
		c0.3,0.3,0.6,0.5,0.9,0.7c0.3-0.3,0.6-0.6,0.9-0.9c-0.2-0.7-0.2-1.5-0.6-2c-1.2-1.3-2.1-2.7-2.2-4.6c-0.3-0.3-0.6-0.6-0.9-0.9
		c-0.9-1.4-2.6-2.5-2.9-4.8c1.5,1,2.7,1.7,3.9,2.5c0,0.4,0,0.9,0,1.4c0.3,0.3,0.6,0.6,0.9,0.9c0.8,0,1.5,0,2.4,0
		c0.7,0.7,1.4,1.5,2.3,2.4C235.5,85.8,235.5,88.4,235.5,91.2z M228.5,75.7c1.8-0.1,2.9-0.2,4-0.3c0.1,0.2,0.2,0.4,0.4,0.6
		c-0.6,0.3-1.3,0.6-2,0.9C230.7,76.8,229.9,76.4,228.5,75.7z M234,78.2c0-0.3,0-0.6,0-0.9c0.1,0,0.2,0,0.3,0c0,0.3,0,0.6,0,0.9
		C234.2,78.2,234.1,78.2,234,78.2z M235,69c-0.6-1-1.2-2-1.8-3c-0.4,0-0.9,0-1.6,0c0.6,1.4,1,2.8,1.5,4.4c-2,0-3.8,0-5.7,0
		c-0.2-0.8,0.7-1,1.1-1.5c0.5-0.6,1.1-1.1,1.6-1.6c0.5-0.5,1-1,1.5-1.5c1.5-2,3-4.1,4.7-6.6C236.5,62.7,237.2,65.9,235,69z
		 M231.4,62.3c-0.2-0.1-0.4-0.2-0.6-0.3c0.7-2,1.3-3.9,2-5.9c-0.5-0.2-0.8-0.3-1.2-0.4c-0.6,0.9-1.2,1.8-1.8,2.8
		c-0.3-0.1-0.6-0.2-0.7-0.4c-1.2-2.1-1-4.3-0.9-6.6c0.3-0.3,0.7-0.7,1.2-1.2c1.3,0,2.7,0,4.2,0c-0.3,0.8-0.6,1.5-0.9,2.2
		c0.2,0.1,0.3,0.2,0.5,0.4c0.7-0.6,1.5-1.2,2.1-1.8c1.6,0,2.1,1,2.1,4C235.3,57.6,233.3,60,231.4,62.3z M238.1,92.3
		c-0.9-2.5-0.5-5-0.8-8c0.9,0.9,1.4,1.3,1.5,1.4C238.6,88.1,238.3,90.2,238.1,92.3z M237.6,80.1c0-1,0-1.7,0-2.5
		c0.2-0.2,0.2-0.2,2.4,1.8C239.3,80,238.5,80.1,237.6,80.1z M240.1,71.3c0.8-0.2,1.7-0.4,2.7-0.6c0.1,0.7,0.2,1.1,0.4,1.8
		c-1,0-2,0-2.9,0C240.2,72,240.2,71.6,240.1,71.3z M243.9,79.7c-1-0.4-1.8-0.9-2.5-1.7C243.2,75.9,243.1,78.1,243.9,79.7z
		 M241.9,101.6c0,0.6,0,1.2,0,1.9c-0.2,0-0.3,0-0.5,0c0-0.6,0-1.2,0-1.9C241.6,101.6,241.7,101.6,241.9,101.6z M241.4,123.7
		c0,0.2-1.5-0.1-2.1,0c0.1-2.7,0-3.5,0.3-3.8c0.2-0.2,0.9-0.1,2.1-0.4C241.9,121.2,241.9,121.1,241.4,123.7z M241.3,111.7
		c0-0.5,0-1,0-1.5c0.1,0,0.3,0,0.4-0.1c0.1,0.5,0.2,1,0.4,1.5C241.9,111.7,241.6,111.7,241.3,111.7z M242.1,98.5c0-0.1,0-0.2,0-0.3
		c0.3,0,0.6,0,0.9,0c0,0.1,0,0.2,0,0.3C242.7,98.5,242.4,98.5,242.1,98.5z M244,114.4c-0.3,0-0.6,0-0.9,0c0-0.1,0-0.2,0-0.3
		c0.3,0,0.6,0,0.9,0C244,114.2,244,114.3,244,114.4z M241.4,64.4c0.4,1,0.7,1.5,0.9,2.1c-1.4,0.4-2.5,0.8-3.9,1.2
		c0-2-0.8-4.5,0.2-5.9c1.5-2.2-0.7-5.1,2.1-6.9c1.7,1.3,3,2.9,3.4,5.4C243.2,61.7,242.3,63.1,241.4,64.4z M245.7,65
		c-0.1,0-0.3,0-0.4,0.1c-0.1-0.5-0.2-1-0.4-1.5c0.3,0,0.5-0.1,0.8-0.1C245.7,63.9,245.7,64.4,245.7,65z M278.1,64.4
		c0.1,0,0.2-0.1,0.2-0.1 M259.9,63.2c0.6,0.7,0.8,1.3,1.3,2.4c-1.4,0.2-4.8,0-5.9,0.2C255.8,64.6,259.4,64.1,259.9,63.2z
		 M257.9,71.7c0,0.9,0,1.7,0,2.7c-1.9,0.2-2.4-0.9-2.9-2.7C256.3,71.7,257,71.7,257.9,71.7z M255.9,77.3c0.5-0.2,1.2,0,2.1,0
		c0,1.1,0,1.7,0,2.3c-0.8,1-1.6,0.8-3.8-0.9C254.8,78.2,255.3,77.6,255.9,77.3z M257,82.3c0,1.3,0,2.7,0,4c-0.8,0.2-2.2-1.7-2.7-2.1
		C254,80.4,254.6,81.5,257,82.3z M253.1,67.8c0,1,0,2,0,3.9c-0.5-1.5-0.6-2.1-0.9-2.6c-0.2-0.3-0.5-0.6-0.8-1
		C252,68,252.5,68,253.1,67.8z M249.7,71.8c0.8,0,1.6,0,2.3,0c0.5,1,1,2,1.5,3c-1.3,0.8-2.4,1.6-3.7,2.4
		C249.7,75.4,249.7,73.6,249.7,71.8z M247.7,66.4c0.3,0,0.6,0,0.9,0c0,0.1,0,0.2,0,0.3c-0.3,0-0.6,0-0.9,0
		C247.7,66.6,247.7,66.5,247.7,66.4z M248.7,89.1c-0.3,0-0.6,0-0.9,0c0-0.1,0-0.2,0-0.3c0.3,0,0.6,0,0.9,0
		C248.7,88.9,248.7,89,248.7,89.1z M258.4,89.6c0.7,0.3,1.4,0.7,2.2,1.1c0,1.9,0,4,0,6.2c-2.5-1.5-3.7-4.1-5.9-5.8
		c-2.2-1.7-4-3.9-5.9-5.8c0-0.9,0-1.6,0-3.1c1,1.7,2.5,2.4,4,3.2L258.4,89.6z M257.8,70.7c-0.4,0.1-0.9,0-1.5-0.1
		c0.3-0.8,0.6-1.5,1.1-2.6c2.2,0,1.5-0.3,5.3-0.5l1.5-0.5c1.6-0.3,3.2-0.7,4.7-0.9c1.5-0.2,2.3-0.3,4.5-0.8c1.4-0.3,7.8-0.1,9.4-1
		c1,2.6,0.2,4.1,0.2,6.6c-2.8-0.5-5.1-0.3-7.9-0.4c-0.7,0-2.1-0.1-3.3-0.1L257.8,70.7z M276.6,78.6c-5.7-1.1-11.4-2.3-17.5-3.5
		c0-0.9-0.1-2-0.2-3.5c3,0,5.7,0.3,8.5-0.1c2.7-0.3,5,0.9,7.5,1.1c2.7,0.1,5.3,0.7,8.2,1.1c0,1.9,0,3.5,0,5.2L276.6,78.6z M286.7,82
		c-0.1,0-0.2,0-0.3,0c0-0.3,0-0.6,0-0.9c0.1,0,0.2,0,0.3,0C286.7,81.3,286.7,81.6,286.7,82z M290,82.7c0-0.2,0-0.3-0.1-0.5
		c0.5-0.1,1-0.2,1.6-0.3c0,0.3,0,0.5,0.1,0.8C290.8,82.7,290.4,82.7,290,82.7z M302.4,85.6c-0.7-0.4-1.4-0.9-2.2-1.3
		c0.2-0.2,0.3-0.4,0.5-0.6c0.6,0.5,1.2,1,1.9,1.6C302.6,85.3,302.5,85.5,302.4,85.6z M307.7,86.5c0-0.2,0-0.3,0-0.5
		c0.8-0.1,1.7-0.2,2.5-0.3c0,0.3,0,0.6,0,0.8C309.4,86.5,308.6,86.5,307.7,86.5z M312.4,87.4c0-0.2,0-0.3,0-0.5
		c1.1-0.3,2.1-0.6,3.4-1c0,0.3,0.1,0.8,0.2,1.5C314.7,87.4,313.6,87.4,312.4,87.4z M317.8,75.9c-0.2,2.2-1.2,5-1.5,6.7
		c-1.2,1.3-1.6,1.7-2.5,2.8c-4.1-1.3-9.4-1.7-13.9-3.1l-13.4-2.2c-2.2-4.6-1.1-9.6-1.4-14.6c0.8-0.6,1.6-1.3,2.9-2.3l8.1-0.5
		c2.6-0.9,4.9-1.9,7.5-2.4c3.5-0.7,7.1-0.4,10.4-1.8c0.5-0.2,1-0.6,1.8-1l1.1,3.4c0,1.1,0,0.8,0.1,1.8c0.9,2.4,0.6,4.4,0.8,6.6
		C318,71.6,318,73.8,317.8,75.9z"/>
</g>
</svg>
